<svg width="699" height="582" viewBox="0 0 699 582" fill="none" xmlns="http://www.w3.org/2000/svg">
<g clip-path="url(#clip0_1_7)">
<path d="M349.5 244L483 186L596 142L699 0L349.5 122L0 0L102 142L349.5 244Z" fill="#CFCDCD"/>
<path d="M356 582L623.062 171L348.531 280.5L74 171L356 582Z" fill="#CFCDCD"/>
<path d="M124.046 289.148L149.395 207.117H174.743L135.136 324.003H112.076L72.469 207.117H98.521L124.046 289.148ZM251.844 324.003H225.263L217.87 299.887H174.742L166.469 324.003H140.592L182.312 207.117H210.652L251.844 324.003ZM276.414 302.703H334.329V324.003H251.945V207.117H276.414V302.703ZM358.969 254.646L403.682 207.117H435.367L389.247 253.238L435.81 323.082V207.117H549.215L573.859 254.646L596.567 207.117H624.732L585.653 280.171V291.003H561.185V279.819L521.714 208.942V227.537H459.574V252.534H516.784V273.13H459.574V303.231H506.002V324.003H406.674L371.995 271.369L358.969 284.22V324.003H334.853V207.117H358.969V254.646ZM181.079 279.819H210.828L196.218 233.347H196.042L181.079 279.819Z" fill="white"/>
<path d="M517.115 324L512.544 293.524H517.623L520.925 316.381H521.179L524.734 293.524H530.702L534.385 316.381H534.639L537.877 293.524H542.893L538.321 324H531.655L527.845 300.699H527.591L523.782 324H517.115ZM565.968 314.857C565.968 321.206 562.752 324.381 556.318 324.381C553.101 324.381 550.709 323.619 549.143 322.095C547.619 320.529 546.858 318.116 546.858 314.857V302.667C546.858 299.45 547.619 297.058 549.143 295.492C550.709 293.926 553.122 293.143 556.381 293.143C562.773 293.143 565.968 296.318 565.968 302.667V310.222H552.191V314.984C552.191 318.032 553.566 319.556 556.318 319.556C559.154 319.556 560.572 318.032 560.572 314.984V313.46H565.968V314.857ZM560.572 302.54C560.572 299.492 559.175 297.969 556.381 297.969C553.588 297.969 552.191 299.492 552.191 302.54V306.159H560.572V302.54ZM585.738 307.238C585.103 307.704 584.511 308.021 583.96 308.191C583.41 308.36 582.542 308.614 581.357 308.953C579.579 309.503 578.437 310.117 577.929 310.794C577.421 311.471 577.167 312.402 577.167 313.587V316.318C577.167 318.476 578.373 319.556 580.786 319.556C582.056 319.556 583.071 319.259 583.833 318.667C584.638 318.074 585.273 317.164 585.738 315.937V307.238ZM586.119 324L585.929 320.127H585.675C584.997 321.312 584.109 322.328 583.008 323.175C581.95 323.979 580.426 324.381 578.437 324.381C576.024 324.381 574.31 323.767 573.294 322.54C572.278 321.312 571.77 319.661 571.77 317.587V314.54C571.77 313.228 571.918 312.106 572.214 311.175C572.511 310.201 572.976 309.397 573.611 308.762C574.246 308.085 575.072 307.513 576.087 307.048C577.146 306.54 578.415 306.074 579.897 305.651C580.574 305.439 581.251 305.249 581.929 305.08C582.648 304.868 583.283 304.656 583.833 304.445C584.384 304.191 584.828 303.894 585.167 303.556C585.505 303.217 585.675 302.794 585.675 302.286V301.016C585.675 298.942 584.362 297.905 581.738 297.905C578.86 297.905 577.421 299.048 577.421 301.334V303.302H572.278V300.699C572.278 298.159 573.124 296.275 574.818 295.048C576.553 293.778 578.966 293.143 582.056 293.143C588.108 293.143 591.135 295.513 591.135 300.254V324H586.119ZM597.323 324V293.524H602.403L602.593 298.73H602.847C603.44 296.953 604.286 295.577 605.387 294.603C606.487 293.63 607.842 293.143 609.45 293.143C610.339 293.143 611.186 293.355 611.99 293.778V298.794C611.355 298.371 610.403 298.159 609.133 298.159C607.44 298.159 606.085 298.667 605.069 299.683C604.053 300.699 603.292 302.561 602.784 305.27V324H597.323Z" fill="white"/>
</g>
<defs>
<clipPath id="clip0_1_7">
<rect width="699" height="582" fill="white"/>
</clipPath>
</defs>
</svg>
