<svg width="553" height="118" viewBox="0 0 553 118" fill="none" xmlns="http://www.w3.org/2000/svg">
<g clip-path="url(#clip0_1_12)">
<path d="M52.046 82.1479L77.395 0.116943H102.743L63.136 117.003H40.076L0.468994 0.116943H26.521L52.046 82.1479ZM179.844 117.003H153.263L145.87 92.887H102.742L94.469 117.003H68.592L110.312 0.116943H138.652L179.844 117.003ZM204.414 95.7029H262.329V117.003H179.945V0.116943H204.414V95.7029ZM286.969 47.6459L331.682 0.116943H363.367L317.247 46.2379L363.81 116.082V0.116943H477.215L501.859 47.6459L524.567 0.116943H552.732L513.653 73.171V84.0029H489.185V72.8189L449.714 1.94193V20.5369H387.574V45.5339H444.784V66.1299H387.574V96.231H434.002V117.003H334.674L299.995 64.369L286.969 77.2199V117.003H262.853V0.116943H286.969V47.6459ZM109.079 72.8189H138.828L124.218 26.3469H124.042L109.079 72.8189Z" fill="white"/>
<path d="M445.115 117L440.544 86.524H445.623L448.925 109.381H449.179L452.734 86.524H458.702L462.385 109.381H462.639L465.877 86.524H470.893L466.321 117H459.655L455.845 93.699H455.591L451.782 117H445.115ZM493.968 107.857C493.968 114.206 490.752 117.381 484.318 117.381C481.101 117.381 478.709 116.619 477.143 115.095C475.619 113.529 474.858 111.116 474.858 107.857V95.6671C474.858 92.4501 475.619 90.0581 477.143 88.4921C478.709 86.9261 481.122 86.1431 484.381 86.1431C490.773 86.1431 493.968 89.3181 493.968 95.6671V103.222H480.191V107.984C480.191 111.032 481.566 112.556 484.318 112.556C487.154 112.556 488.572 111.032 488.572 107.984V106.46H493.968V107.857ZM488.572 95.54C488.572 92.492 487.175 90.9691 484.381 90.9691C481.588 90.9691 480.191 92.492 480.191 95.54V99.1591H488.572V95.54ZM513.738 100.238C513.103 100.704 512.511 101.021 511.96 101.191C511.41 101.36 510.542 101.614 509.357 101.953C507.579 102.503 506.437 103.117 505.929 103.794C505.421 104.471 505.167 105.402 505.167 106.587V109.318C505.167 111.476 506.373 112.556 508.786 112.556C510.056 112.556 511.071 112.259 511.833 111.667C512.638 111.074 513.273 110.164 513.738 108.937V100.238ZM514.119 117L513.929 113.127H513.675C512.997 114.312 512.109 115.328 511.008 116.175C509.95 116.979 508.426 117.381 506.437 117.381C504.024 117.381 502.31 116.767 501.294 115.54C500.278 114.312 499.77 112.661 499.77 110.587V107.54C499.77 106.228 499.918 105.106 500.214 104.175C500.511 103.201 500.976 102.397 501.611 101.762C502.246 101.085 503.072 100.513 504.087 100.048C505.146 99.54 506.415 99.0741 507.897 98.6511C508.574 98.4391 509.251 98.2491 509.929 98.0801C510.648 97.8681 511.283 97.6561 511.833 97.4451C512.384 97.1911 512.828 96.8941 513.167 96.5561C513.505 96.2171 513.675 95.7941 513.675 95.2861V94.0161C513.675 91.9421 512.362 90.9051 509.738 90.9051C506.86 90.9051 505.421 92.048 505.421 94.334V96.3021H500.278V93.699C500.278 91.159 501.124 89.275 502.818 88.048C504.553 86.778 506.966 86.1431 510.056 86.1431C516.108 86.1431 519.135 88.5131 519.135 93.2541V117H514.119ZM525.323 117V86.524H530.403L530.593 91.73H530.847C531.44 89.953 532.286 88.5771 533.387 87.6031C534.487 86.6301 535.842 86.1431 537.45 86.1431C538.339 86.1431 539.186 86.3551 539.99 86.7781V91.7941C539.355 91.3711 538.403 91.1591 537.133 91.1591C535.44 91.1591 534.085 91.667 533.069 92.683C532.053 93.699 531.292 95.5611 530.784 98.2701V117H525.323Z" fill="white"/>
</g>
<defs>
<clipPath id="clip0_1_12">
<rect width="553" height="118" fill="white"/>
</clipPath>
</defs>
</svg>
